# xmcd CD database file
# Copyright (C) 1993-1998 Ti Kan
# 
# Track frame offsets:
# 150
# 14457
# 25532
# 39800
# 53892
# 69240
# 83507
# 92547
# 108207
# 121940
# 
# Disc length: 2357 seconds
# 
# Revision: 0
# Processed by: cddbd v1.4b41PL1 Copyright (c) Steve Scherf et al.
# Submitted via: SuperSonic v3.01
# 
DISCID=6309330a
DTITLE=Robert Lund - Counterfeit Country
DYEAR=1900
DGENRE=
TTITLE0=Any Woman of Mine
TTITLE1=Frankenstein
TTITLE2=6 Boys 4 Girls
TTITLE3=Check Yes Or No
TTITLE4=I Scratch It, I Pinch It
TTITLE5=Play That Country Music, Cowboy
TTITLE6=Why Did She Hit Me?
TTITLE7=Fast Food
TTITLE8=Paddle My Bum
TTITLE9=Carter Got Run Over By A John Deere
EXTD=
EXTT0=
EXTT1=
EXTT2=
EXTT3=
EXTT4=
EXTT5=
EXTT6=
EXTT7=
EXTT8=
EXTT9=
PLAYORDER=
